<svg width="156" height="161" viewBox="0 0 156 161" fill="none" xmlns="http://www.w3.org/2000/svg">
<path fill-rule="evenodd" clip-rule="evenodd" d="M68.312 0.569493C50.2699 2.66356 33.3582 11.2098 20.8218 24.5697C17.7856 27.8055 14.2163 32.0805 12.8907 34.0696C-2.21633 56.7337 -4.15463 84.1591 7.65489 108.155C12.3737 117.744 16.7581 123.618 24.7739 131.09C35.5498 141.136 50.3288 148.366 64.9365 150.739C77.1178 152.717 92.2537 151.557 103.273 147.801C109.53 145.669 118.352 141.335 122.901 138.159L125.968 136.019L122.901 138.922C119.6 142.046 112.116 147.898 109.867 149.113C109.108 149.523 108.487 150.11 108.487 150.416C108.487 151.227 114.624 153.997 121.675 156.368C133.162 160.231 145.242 162.112 147.008 160.314C148.072 159.229 147.914 156.979 146.586 154.321C145.949 153.046 144.529 149.331 143.43 146.066C141.673 140.85 141.429 139.332 141.423 133.567C141.413 125.151 142.477 121.159 147.396 111.138C154.52 96.626 156.021 90.4026 156 75.451C155.986 65.9905 155.789 63.7565 154.535 58.8909C149.889 40.8642 139.514 25.6814 124.273 14.6056C108.616 3.22661 88.6243 -1.78766 68.312 0.569493ZM91.6317 34.3595C97.7741 36.1718 103.305 39.3101 108.628 44.0031C117.959 52.2288 122.757 62.9916 122.786 75.7635C122.827 93.9777 112.623 108.802 95.02 116.101C89.2561 118.49 82.7578 119.446 75.1923 119.016C66.3277 118.513 58.7536 115.931 52.5627 111.303C50.7207 109.926 49.5479 109.404 49.2823 109.842C48.7413 110.734 50.2969 112.449 54.8157 115.944C56.8398 117.51 58.626 118.896 58.7849 119.026C59.8847 119.925 43.7428 124.819 39.6779 124.819C38.2113 124.819 38.2739 124.364 40.6593 117.632C43.2644 110.282 42.5559 103.068 38.5119 95.768C36.0988 91.4124 34.6114 86.7731 33.6201 80.5103C32.8491 75.641 32.8853 74.7767 34.1133 68.637C36.0602 58.9034 39.2118 52.8743 45.9032 46.0803C53.4638 38.4046 60.6637 34.5908 70.7637 32.9116C75.9646 32.0468 86.2008 32.7573 91.6317 34.3595Z" fill="#2F2D52"/>
</svg>
